<?xml version="1.0" standalone="no"?> <!DOCTYPE svg PUBLIC "-//W3C//DTD SVG 1.0//EN" "http://www.w3.org/TR/2001/REC-SVG-20010904/DTD/svg10.dtd" > <svg xmlns="http://www.w3.org/2000/svg" width="100%" height="100%">
<defs >
<font id="arcusregular" horiz-adv-x="814" ><font-face
    font-family="Arcus"
    units-per-em="2048"
    panose-1="2 0 5 3 0 0 0 2 0 4"
    ascent="1939"
    descent="-473"
    alphabetic="0" />
<missing-glyph horiz-adv-x="1024" d="M0 -473V1575H1024V-473H0ZM664 477Q647 462 612 450T547 438Q462 438 422 487T381 623Q381 692 420 738T530 784Q595 784 664 748L682 801Q658 823 618 837T532 852Q426 852 364 788T301 612Q301 512 358 443T524 373Q623
373 682 438L664 477ZM510 1030Q338 1030 214 908T90 614Q90 439 213 317T510 195Q684 195 806 316T928 614Q928 786 806 908T510 1030ZM510 264Q364 264 264 365T164 614Q164 757 264 860T510 963Q654 963 758 860T862 614Q862 468 759 366T510 264ZM506 1194L418
1272L391 1253L489 1102H524L623 1253L596 1272L506 1194Z" />
<glyph unicode=" " glyph-name="space" horiz-adv-x="512" />
<glyph unicode="!" glyph-name="exclam" horiz-adv-x="395" d="M317 158V0H160V158H317ZM317 471H160V1417H317V471Z" />
<glyph unicode="&quot;" glyph-name="quotedbl" horiz-adv-x="491" d="M197 1122H78V1575H197V1122ZM414 1122H295V1575H414V1122Z" />
<glyph unicode="#" glyph-name="numbersign" horiz-adv-x="1060" d="M707 0H549L618 494H385L315 0H158L227 494H78V612H244L270 807H158V924H287L356 1417H514L444 924H678L748 1417H905L836 924H983V807H819L793 612H905V494H776L707 0ZM428 807L401 612H635L662
807H428Z" />
<glyph unicode="$" glyph-name="dollar" horiz-adv-x="946" d="M393 1417H551V1251Q670 1225 748 1140T827 944H670Q670 1008 611 1055T471 1102T333 1049T274 909V907Q274 824 326 767T471 709Q626 709 726 605T827 352V348Q827 276 804 216T740 115T653 48T551
8V-160H393V8Q274 33 197 118T119 313H274Q276 250 335 203T473 156Q553 156 610 207T670 348V352Q670 437 616 494T471 551Q314 551 217 654T119 907Q119 1048 198 1135T393 1249V1417Z" />
<glyph unicode="%" glyph-name="percent" horiz-adv-x="1437" d="M435 608T340 608T172 675T98 836V1210Q98 1303 171 1370T340 1438T508 1371T582 1210V836Q582 743 509 676ZM326 0L993 1417H1112L442 0H326ZM294 727T340 727T424 759T463 836V1210Q463 1254
425 1286T340 1319T256 1287T217 1210V836Q217 792 255 760ZM1193 -20T1098 -20T930 47T856 207V582Q856 674 929 741T1098 809T1266 742T1339 582V207Q1339 114 1266 47ZM1052 98T1098 98T1182 130T1221 207V582Q1221 625 1183 657T1098 690T1014 658T975 582V207Q975
163 1013 131Z" />
<glyph unicode="&amp;" glyph-name="ampersand" horiz-adv-x="1122" d="M98 371Q98 485 147 578T272 725Q215 777 177 861T139 1047Q139 1219 245 1328T512 1438Q676 1438 781 1329T887 1042H729Q729 1100 708 1152T636 1242T514 1280Q408 1280 353 1213T297 1042Q297
932 371 859T555 786H1122V629H885V315Q885 249 931 204T1042 158V0Q968 0 903 31T795 119Q755 75 723 49T629 1T489 -20Q322 -20 210 88T98 371ZM489 137Q596 137 661 193T727 346V629H506Q396 626 326 554T256 371Q256 272 321 205T489 137Z" />
<glyph unicode="&apos;" glyph-name="quotesingle" horiz-adv-x="272" d="M195 1122H78V1575H195V1122Z" />
<glyph unicode="(" glyph-name="parenleft" horiz-adv-x="550" d="M119 39V1221Q119 1368 223 1471T473 1575V1417Q392 1417 334 1360T276 1221V39Q276 -43 334 -100T473 -158V-315Q327 -315 223 -211T119 39Z" />
<glyph unicode=")" glyph-name="parenright" horiz-adv-x="550" d="M432 1221V39Q432 -107 328 -211T78 -315V-158Q159 -158 216 -101T274 39V1221Q274 1302 217 1359T78 1417V1575Q224 1575 328 1472T432 1221Z" />
<glyph unicode="*" glyph-name="asterisk" horiz-adv-x="1062" d="M88 1364L190 1423Q214 1381 255 1358T344 1335Q379 1335 412 1348Q351 1390 318 1454T285 1591Q285 1671 324 1739L426 1679Q401 1635 401 1591Q401 1501 471 1450Q480 1564 564 1642T766 1720V1604Q699
1604 648 1559T588 1448Q647 1477 715 1477Q793 1477 862 1438T971 1329L868 1270Q845 1312 804 1335T715 1358Q682 1358 647 1346Q706 1304 740 1239T774 1102Q774 1022 735 954L633 1014Q657 1056 657 1102Q657 1188 586 1243Q576 1129 493 1051T293 973V1092Q360
1092 409 1135T469 1243Q410 1217 344 1217Q266 1217 197 1256T88 1364Z" />
<glyph unicode="+" glyph-name="plus" horiz-adv-x="1181" d="M670 236H512V629H119V786H512V1180H670V786H1063V629H670V236Z" />
<glyph unicode="," glyph-name="comma" horiz-adv-x="450" d="M236 0V158H393V0Q393 -130 300 -222T78 -315V-158Q143 -158 189 -112T236 0Z" />
<glyph unicode="-" glyph-name="hyphen" horiz-adv-x="788" d="M670 471H119V629H670V471Z" />
<glyph unicode="." glyph-name="period" horiz-adv-x="395" d="M317 156V0H160V156H317Z" />
<glyph unicode="/" glyph-name="slash" horiz-adv-x="864" d="M78 0L629 1417H786L236 0H78Z" />
<glyph unicode="0" glyph-name="zero" horiz-adv-x="948" d="M475 -20Q333 -20 236 80T139 315V1102Q139 1236 236 1337T475 1438Q618 1438 713 1337T809 1102V315Q809 181 713 81T475 -20ZM651 315V1102Q651 1172 602 1226T475 1280Q398 1280 348 1226T297 1102V315Q297
246 347 192T475 137T601 191T651 315Z" />
<glyph unicode="1" glyph-name="one" horiz-adv-x="614" d="M455 0H297V1006Q222 944 57 944V1102Q156 1102 226 1155T297 1300V1417H455V0Z" />
<glyph unicode="2" glyph-name="two" horiz-adv-x="905" d="M139 0V471Q139 602 235 694T475 786Q553 786 600 831T649 944L651 1102Q649 1172 601 1226T475 1280Q399 1280 348 1225T297 1102H139Q139 1237 236 1337T475 1438T712 1338T807 1102V944Q807 812 713
721T475 629Q397 629 347 583T297 471V158H807V0H139Z" />
<glyph unicode="3" glyph-name="three" horiz-adv-x="866" d="M412 629H236V786H412Q492 786 541 835T590 963V1102Q590 1171 540 1225T414 1280Q336 1280 286 1226T236 1102H78Q78 1236 174 1337T414 1438Q556 1438 652 1337T748 1102V963Q748 880 709 808T618
707Q670 678 709 606T748 451V315Q748 181 652 81T414 -20Q271 -20 175 80T78 315H236Q236 245 286 191T414 137Q490 137 540 191T590 315V451Q590 529 542 577T412 629Z" />
<glyph unicode="4" glyph-name="four" horiz-adv-x="847" d="M709 0H551V629H393Q262 629 170 720T78 942V1417H236V942Q236 878 282 832T393 786H551V1417H709V0Z" />
<glyph unicode="5" glyph-name="five" horiz-adv-x="886" d="M453 -20Q310 -20 215 80T119 315H276Q276 245 325 191T453 137Q530 137 580 191T631 315V512Q631 607 579 659T432 711H158V1417H748V1260H315V868H432Q592 868 690 771T788 512V315Q788 181 692 81T453 -20Z" />
<glyph unicode="6" glyph-name="six" horiz-adv-x="907" d="M475 -20Q333 -20 236 80T139 315V1102Q139 1236 236 1337T475 1438Q616 1438 712 1337T809 1102H651Q651 1172 602 1226T475 1280T348 1226T297 1102V786H473Q619 786 714 692T809 451V315Q809 181
713 81T475 -20ZM297 629V315Q297 246 347 192T475 137T601 191T651 315V451Q651 531 603 580T473 629H297Z" />
<glyph unicode="7" glyph-name="seven" horiz-adv-x="829" d="M711 0H553V629H119V786H553V1102Q553 1171 503 1225T377 1280Q299 1280 249 1226T199 1102H41Q41 1236 137 1337T377 1438Q519 1438 615 1337T711 1102V0Z" />
<glyph unicode="8" glyph-name="eight" horiz-adv-x="948" d="M475 -23Q333 -23 236 78T139 313V451Q139 524 171 591T260 707Q203 754 171 822T139 965V1102Q139 1236 236 1337T475 1438Q618 1438 713 1337T809 1102V965Q809 891 778 823T690 707Q746 659 777
592T809 451V313Q809 179 713 78T475 -23ZM477 629H469Q395 626 346 572T297 451V313Q297 244 347 190T475 135T601 189T651 313V451Q651 519 605 572T485 629H477ZM651 965V1102Q651 1172 602 1226T475 1280Q398 1280 348 1226T297 1102V965Q297 898 346 844T469
786H485Q559 790 605 843T651 965Z" />
<glyph unicode="9" glyph-name="nine" horiz-adv-x="907" d="M432 1438Q575 1438 671 1337T768 1102V315Q768 181 671 81T430 -20Q289 -20 194 80T98 315H256Q256 245 305 191T430 137Q507 137 558 191T610 315V631H434Q288 631 193 726T98 967V1102Q98 1236 194
1337T432 1438ZM610 788V1102Q610 1171 560 1225T432 1280Q356 1280 306 1226T256 1102V967Q256 886 304 837T434 788H610Z" />
<glyph unicode=":" glyph-name="colon" horiz-adv-x="395" d="M317 158V0H160V158H317ZM317 1104V946H160V1104H317Z" />
<glyph unicode=";" glyph-name="semicolon" horiz-adv-x="450" d="M391 1104V946H233V1104H391ZM236 0V158H393V0Q393 -130 300 -222T78 -315V-158Q143 -158 189 -112T236 0Z" />
<glyph unicode="&lt;" glyph-name="less" horiz-adv-x="866" d="M748 471V313L119 629V786L748 1102V944L274 707L748 471Z" />
<glyph unicode="=" glyph-name="equal" horiz-adv-x="946" d="M827 786H119V944H827V786ZM827 471H119V629H827V471Z" />
<glyph unicode="&gt;" glyph-name="greater" horiz-adv-x="866" d="M748 786V629L119 313V471L590 707L119 944V1102L748 786Z" />
<glyph unicode="?" glyph-name="question" horiz-adv-x="786" d="M432 473H274V866H332Q390 866 434 884T502 933T539 996T551 1063Q551 1160 493 1210T360 1260H160V1417H360Q448 1417 526 1377T657 1255T709 1063Q709 940 635 843T432 731V473ZM432 158V0H274V158H432Z" />
<glyph unicode="@" glyph-name="at" horiz-adv-x="1392" d="M1159 803V315Q1159 253 1206 207T1315 158V0Q1249 0 1186 27T1081 109Q970 -20 807 -20H805Q645 -20 547 73T449 313Q452 449 549 540T805 631H1001V803Q1001 929 910 1016T680 1104T450 1017T358 803V-16Q358
-142 449 -229T680 -317V-473Q474 -473 338 -341T201 -16V803Q201 996 337 1128T680 1260T1022 1128T1159 803ZM999 473H803Q712 473 658 427T604 313Q604 231 656 184T803 137H805Q887 137 943 186T999 315V473Z" />
<glyph unicode="A" glyph-name="A" horiz-adv-x="1067" d="M139 1044Q139 1207 255 1322T535 1438Q698 1438 813 1323T928 1044V0H770V629H297V0H139V1044ZM770 786V1044Q770 1143 702 1211T535 1280Q438 1280 368 1211T297 1044V786H770Z" />
<glyph unicode="B" glyph-name="B" horiz-adv-x="1042" d="M160 1417H510Q691 1415 807 1312T924 1024Q924 927 884 848T770 715Q854 662 899 580T944 393Q944 205 824 103T508 0H160V1417ZM510 158Q786 158 786 395Q786 507 704 568T467 629H317V158H510ZM766
1024Q765 1143 696 1201T510 1260H317V786H467Q609 786 687 848T766 1024Z" />
<glyph unicode="C" glyph-name="C" horiz-adv-x="983" d="M119 373V1044Q119 1207 234 1322T512 1438T790 1323T905 1044H748Q748 1143 679 1211T512 1280T345 1212T276 1044V373Q276 275 345 206T512 137T679 206T748 373H905Q905 210 790 95T512 -20T234 95T119 373Z" />
<glyph unicode="D" glyph-name="D" horiz-adv-x="1064" d="M160 0V1417H512Q704 1417 825 1300T946 1004V414Q946 234 825 117T512 0H160ZM512 1260H319V158H512Q640 158 714 228T788 414V1004Q788 1119 714 1189T512 1260Z" />
<glyph unicode="E" glyph-name="E" horiz-adv-x="946" d="M827 0H535Q346 0 233 112T119 391Q119 487 163 568T283 707Q207 764 163 846T119 1024Q119 1189 229 1303T514 1417H827V1260H514Q406 1260 341 1192T276 1024Q276 926 343 859T535 786H827V629H535Q413
629 345 560T276 391Q276 290 344 224T535 158H827V0Z" />
<glyph unicode="F" glyph-name="F" horiz-adv-x="905" d="M535 1415H848V1257H535Q437 1257 367 1192T297 1030V786H848V629H297V0H139V1030Q139 1191 255 1303T535 1415Z" />
<glyph unicode="G" glyph-name="G" horiz-adv-x="1024" d="M905 373Q905 210 790 95T512 -20T234 95T119 373V1044Q119 1207 234 1322T512 1438T790 1323T905 1044H748Q748 1143 679 1211T512 1280T345 1212T276 1044V373Q276 275 345 206T512 137T679 206T748
373V629H512V786H905V373Z" />
<glyph unicode="H" glyph-name="H" horiz-adv-x="1144" d="M985 0H827V629H317V0H160V1417H317V786H827V1417H985V0Z" />
<glyph unicode="I" glyph-name="I" horiz-adv-x="477" d="M317 0H160V1417H317V0Z" />
<glyph unicode="J" glyph-name="J" horiz-adv-x="454" d="M0 -315V-158Q65 -158 112 -112T160 0V1417H315V0Q313 -131 222 -223T0 -315Z" />
<glyph unicode="K" glyph-name="K" horiz-adv-x="1081" d="M387 629H317V0H160V1417H317V786H387Q575 786 681 876T788 1102V1417H946V1102Q946 984 883 876T711 702Q832 623 897 480T963 156V0H805V156Q805 261 781 346T708 495T578 594T387 629Z" />
<glyph unicode="L" glyph-name="L" horiz-adv-x="823" d="M807 0H453Q306 0 223 83T139 313V1417H297V313Q297 232 334 195T453 158H807V0Z" />
<glyph unicode="M" glyph-name="M" horiz-adv-x="1697" d="M1163 1280Q1068 1280 1000 1213T928 1044V0H770V1044Q770 1143 701 1211T535 1280Q436 1280 367 1212T297 1044V0H139V1044Q139 1208 254 1323T535 1438Q630 1438 712 1396T850 1282Q905 1354 987 1396T1163
1438Q1327 1438 1443 1323T1559 1044V0H1401V1044Q1401 1143 1332 1211T1163 1280Z" />
<glyph unicode="N" glyph-name="N" horiz-adv-x="1064" d="M532 1280Q434 1280 366 1212T297 1044V0H139V1044Q139 1207 254 1322T532 1438Q696 1438 811 1323T926 1044V0H768V1044Q768 1143 700 1211T532 1280Z" />
<glyph unicode="O" glyph-name="O" horiz-adv-x="1024" d="M675 -20T512 -20T234 95T119 373V1044Q119 1207 234 1322T512 1438T790 1323T905 1044V373Q905 210 790 95ZM610 1280T512 1280T345 1212T276 1044V373Q276 275 345 206T512 137T679 206T748 373V1044Q748
1143 679 1211Z" />
<glyph unicode="P" glyph-name="P" horiz-adv-x="980" d="M317 0H160V1417H551Q728 1417 836 1314T944 1024Q944 846 819 738T487 629H317V0ZM786 1024Q783 1260 551 1260H317V786H487Q630 786 708 848T786 1024Z" />
<glyph unicode="Q" glyph-name="Q" horiz-adv-x="1091" d="M512 -20Q349 -20 234 95T119 373V1044Q119 1207 234 1322T512 1438T790 1323T905 1044V334Q905 256 951 207T1063 158V0Q908 0 813 121Q761 56 682 18T512 -20ZM512 1280Q414 1280 345 1212T276 1044V373Q276
275 345 206T512 137Q609 137 677 187T745 332Q745 391 686 432T549 473H512V629H549Q692 629 756 565V1044Q756 1142 684 1211T512 1280Z" />
<glyph unicode="R" glyph-name="R" horiz-adv-x="1079" d="M317 0H160V1417H551Q729 1417 836 1313T944 1022Q944 909 888 821T733 682Q845 599 903 464T961 156V0H803V156Q803 366 705 493T406 629H317V0ZM786 1022Q786 1260 551 1260H317V786H487Q629 786 706
847T786 1022Z" />
<glyph unicode="S" glyph-name="S" horiz-adv-x="1003" d="M907 1042H750Q750 1143 686 1211T512 1280Q404 1280 340 1213T276 1036Q276 933 342 860T516 786Q698 786 812 669T926 385Q926 304 897 231T816 102T684 13T512 -20Q336 -20 217 95T98 375H256Q256
276 328 207T510 137Q629 137 698 208T768 381Q768 484 702 556T516 629Q344 629 232 748T119 1034Q119 1212 229 1325T514 1438Q600 1438 674 1406T798 1320T878 1194T907 1042Z" />
<glyph unicode="T" glyph-name="T" horiz-adv-x="864" d="M512 0H354V1260H37V1417H827V1260H512V0Z" />
<glyph unicode="U" glyph-name="U" horiz-adv-x="1112" d="M532 137Q631 137 699 206T768 373V1417H926V315Q926 249 972 204T1083 158V0Q929 0 834 121Q784 56 704 18T532 -20Q369 -20 254 95T139 373V1417H297V373Q297 275 365 206T532 137Z" />
<glyph unicode="V" glyph-name="V" horiz-adv-x="1064" d="M532 137Q631 137 699 206T768 373V1417H926V373Q926 210 811 95T532 -20T254 95T139 373V1417H297V373Q297 275 365 206T532 137Z" />
<glyph unicode="W" glyph-name="W" horiz-adv-x="1697" d="M535 137Q629 137 697 204T770 373V1417H928V373Q928 275 997 206T1163 137Q1261 137 1331 206T1401 373V1417H1559V373Q1559 210 1443 95T1163 -20Q1068 -20 986 21T848 135Q793 63 711 22T535 -20Q370
-20 255 95T139 373V1417H297V373Q297 275 366 206T535 137Z" />
<glyph unicode="X" glyph-name="X" horiz-adv-x="1064" d="M768 1024V1417H926V1024Q926 929 884 846T768 707Q841 651 883 569T926 393V0H768V393Q768 491 700 560T532 629Q434 629 366 560T297 393V0H139V393Q139 488 181 570T297 707Q224 763 182 846T139 1024V1417H297V1024Q297
924 364 855T537 786Q632 790 700 859T768 1024Z" />
<glyph unicode="Y" glyph-name="Y" horiz-adv-x="942" d="M373 786T471 786T638 855T707 1022V1417H864V1022Q864 880 774 772T549 637V0H391V637Q256 665 167 772T78 1022V1417H236V1022Q236 924 304 855Z" />
<glyph unicode="Z" glyph-name="Z" horiz-adv-x="964" d="M115 1417H844V1014Q844 940 820 872T752 749T636 662T479 629Q383 629 320 564T256 401V158H866V0H98V401Q98 563 207 674T479 786Q583 786 634 853T686 1014V1260H115V1417Z" />
<glyph unicode="[" glyph-name="bracketleft" horiz-adv-x="471" d="M434 -315H119V1575H434V1417H276V-158H434V-315Z" />
<glyph unicode="\" glyph-name="backslash" horiz-adv-x="864" d="M236 1417L786 0H629L78 1417H236Z" />
<glyph unicode="]" glyph-name="bracketright" horiz-adv-x="471" d="M352 -315H37V-158H195V1417H37V1575H352V-315Z" />
<glyph unicode="^" glyph-name="asciicircum" horiz-adv-x="1026" d="M276 944H119L432 1575H592L907 944H750L512 1417L276 944Z" />
<glyph unicode="_" glyph-name="underscore" horiz-adv-x="946" d="M827 -315H119V-158H827V-315Z" />
<glyph unicode="`" glyph-name="grave" horiz-adv-x="946" d="M256 1575H375Q375 1502 427 1451T551 1399V1280Q429 1280 343 1366T256 1575Z" />
<glyph unicode="a" glyph-name="a" horiz-adv-x="952" d="M690 109Q579 -20 416 -20H414Q254 -20 156 73T57 313Q60 449 157 539T414 629H610V725Q610 944 391 944H195V1102H391Q568 1102 668 1002T768 725V315Q768 253 815 207T924 158V0Q858 0 795 27T690 109ZM610
471H414Q323 471 269 426T215 313Q215 231 267 184T414 137H416Q498 137 554 186T610 315V471Z" />
<glyph unicode="b" glyph-name="b" horiz-adv-x="1015" d="M897 788V315Q897 171 796 76T547 -20Q463 -20 390 13T264 104Q221 55 160 28T29 0V158Q94 158 141 204T188 315V1575H346V1049Q428 1122 545 1122Q691 1122 794 1027T897 788ZM547 137Q628 137 683 187T739
315V788Q739 866 683 916T545 967Q463 967 405 916T346 788V315Q346 237 405 187T547 137Z" />
<glyph unicode="c" glyph-name="c" horiz-adv-x="905" d="M119 315V788Q119 932 223 1027T475 1122Q622 1122 724 1027T827 788H670Q670 866 614 916T475 967Q394 967 335 916T276 788V315Q276 238 335 188T477 137T614 187T670 315H827Q827 171 726 76T477 -20T224
76T119 315Z" />
<glyph unicode="d" glyph-name="d" horiz-adv-x="1015" d="M119 315V788Q119 932 222 1027T471 1122Q594 1122 670 1047V1575H827V315Q827 250 874 204T987 158V0Q918 0 857 27T752 104Q700 46 627 13T469 -20Q321 -20 220 75T119 315ZM387 137T469 137T610 187T670
315V788Q670 865 612 916T471 967Q390 967 333 916T276 788V315Q276 237 331 187Z" />
<glyph unicode="e" glyph-name="e" horiz-adv-x="925" d="M750 158V0H532Q354 0 237 110T119 395V766Q119 916 219 1019T477 1122Q634 1122 730 1020T827 766V471H276V395Q276 286 347 222T532 158H750ZM477 965Q384 965 330 907T276 766V629H670V766Q670 851
620 908T477 965Z" />
<glyph unicode="f" glyph-name="f" horiz-adv-x="645" d="M528 1417Q462 1417 417 1371T371 1260V1102H645V946H371V0H213V946H0V1102H213V1260Q213 1390 305 1482T528 1575H584V1417H528Z" />
<glyph unicode="g" glyph-name="g" horiz-adv-x="962" d="M725 995Q821 1102 963 1102V944Q895 944 845 897T795 786V651Q795 506 696 411T449 315Q383 315 351 291T319 231Q319 198 354 178T453 158Q647 158 759 67T872 -158Q872 -292 757 -382T453 -473Q344
-473 251 -436T100 -326T41 -158Q41 16 227 102Q178 154 178 227Q178 271 202 312T260 371Q193 408 148 484T102 651V786Q102 939 206 1030T451 1122Q532 1122 605 1086T725 995ZM449 473Q532 473 589 522T647 651V786Q647 875 587 920T451 965Q374 965 314 920T254
786V651Q254 572 309 523T449 473ZM449 0Q340 0 265 -46T190 -158Q190 -209 230 -247T330 -302T455 -319Q576 -319 650 -272T725 -158Q725 -89 655 -45T449 0Z" />
<glyph unicode="h" glyph-name="h" horiz-adv-x="991" d="M160 0V1575H317V1047Q396 1122 516 1122Q663 1122 765 1027T868 788V0H711V788Q711 866 655 916T516 967Q435 967 376 916T317 788V0H160Z" />
<glyph unicode="i" glyph-name="i" horiz-adv-x="477" d="M317 1417V1260H160V1417H317ZM317 0H160V1102H317V0Z" />
<glyph unicode="j" glyph-name="j" horiz-adv-x="454" d="M158 -160V1102H315V-160Q315 -290 223 -381T0 -473V-317Q65 -315 111 -270T158 -160ZM315 1417V1260H158V1417H315Z" />
<glyph unicode="k" glyph-name="k" horiz-adv-x="968" d="M397 471V473Q385 471 317 471V0H160V1575H317V629H356Q486 629 579 722T672 944V1102H829V944Q829 828 778 729T637 563Q743 500 806 392T870 156V0H713V156Q713 285 620 378T397 471Z" />
<glyph unicode="l" glyph-name="l" horiz-adv-x="462" d="M276 1575V315Q276 251 322 205T434 158V0Q304 0 212 92T119 315V1575H276Z" />
<glyph unicode="m" glyph-name="m" horiz-adv-x="1570" d="M262 999Q312 1058 385 1090T543 1122Q625 1122 696 1090T817 1001Q867 1057 940 1089T1096 1122Q1242 1122 1345 1027T1448 788V0H1290V788Q1290 866 1234 916T1096 967Q1016 967 957 919T895 797V0H737V788Q737
866 681 916T543 967Q461 967 403 916T344 788V0H186V788Q186 853 141 899T29 946V1102Q167 1102 262 999Z" />
<glyph unicode="n" glyph-name="n" horiz-adv-x="1017" d="M262 999Q312 1058 385 1090T543 1122Q689 1122 792 1027T895 788V0H737V788Q737 866 681 916T543 967Q461 967 403 916T344 788V0H186V788Q186 853 141 899T29 946V1102Q167 1102 262 999Z" />
<glyph unicode="o" glyph-name="o" horiz-adv-x="946" d="M827 788V315Q827 171 726 76T477 -20T224 76T119 315V788Q119 932 223 1027T475 1122Q622 1122 724 1027T827 788ZM395 137T477 137T614 187T670 315V788Q670 866 614 916T475 967Q394 967 335 916T276
788V315Q276 238 335 188Z" />
<glyph unicode="p" glyph-name="p" horiz-adv-x="1015" d="M897 786V313Q897 170 794 75T545 -20Q424 -20 346 55V-473H188V786Q188 852 141 898T29 944V1102Q98 1102 159 1075T264 997Q316 1056 389 1089T547 1122Q694 1122 795 1027T897 786ZM547 965Q464 965
405 915T346 786V313Q346 236 404 186T545 135Q626 135 682 185T739 313V786Q739 865 684 915T547 965Z" />
<glyph unicode="q" glyph-name="q" horiz-adv-x="1015" d="M119 313V786Q119 931 220 1026T469 1122Q553 1122 626 1089T752 997Q795 1047 856 1074T987 1102V944Q922 944 875 898T827 786V-473H670V55Q591 -20 471 -20Q325 -20 222 75T119 313ZM551 965T469 965T332
915T276 786V313Q276 236 333 186T471 135Q553 135 611 185T670 313V786Q670 864 611 914Z" />
<glyph unicode="r" glyph-name="r" horiz-adv-x="659" d="M565 1102H659V946H565Q346 946 346 727V0H188V788Q188 852 142 898T29 946V1102Q99 1102 162 1074T268 995Q362 1102 565 1102Z" />
<glyph unicode="s" glyph-name="s" horiz-adv-x="880" d="M432 967Q341 966 292 913T242 788Q242 718 290 675T432 631Q608 631 705 547T803 315Q803 179 704 80T449 -20Q291 -20 185 80T78 315H236Q236 245 296 191T449 137Q540 137 592 190T645 315Q645 384
592 428T432 473Q259 473 172 556T84 788Q84 925 180 1023T432 1122Q583 1122 679 1023T776 788H618Q618 857 568 912T432 967Z" />
<glyph unicode="t" glyph-name="t" horiz-adv-x="647" d="M510 0Q380 0 288 92T195 315V946H0V1102H195V1417H352V1102H647V946H352V315Q352 249 398 204T510 158H584V0H510Z" />
<glyph unicode="u" glyph-name="u" horiz-adv-x="1017" d="M831 1102V315Q831 249 877 204T989 158V0Q847 0 754 106Q638 -20 477 -20T220 77T123 336V1102H281V336Q281 243 336 190T477 137Q559 137 616 195T674 336V1102H831Z" />
<glyph unicode="v" glyph-name="v" horiz-adv-x="954" d="M477 135Q559 137 616 194T674 334V1102H831V334Q831 186 728 83T477 -20Q330 -20 227 83T123 334V1102H281V334Q281 252 338 195T477 135Z" />
<glyph unicode="w" glyph-name="w" horiz-adv-x="1507" d="M477 135Q559 137 616 194T674 334V1102H831V334Q831 253 889 194T1028 135Q1111 135 1169 194T1227 334V1102H1384V334Q1384 186 1280 83T1028 -20Q947 -20 874 15T752 111Q703 50 631 15T477 -20Q331
-20 227 83T123 334V1102H281V334Q281 252 338 195T477 135Z" />
<glyph unicode="x" glyph-name="x" horiz-adv-x="946" d="M670 825V1102H827V825Q827 744 791 672T694 549Q755 500 791 428T827 274V0H670V274Q670 353 614 410T473 471Q389 468 333 411T276 274V0H119V274Q119 356 154 428T250 549Q189 598 154 671T119 825V1102H276V825Q276
744 334 687T473 629Q556 629 613 687T670 825Z" />
<glyph unicode="y" glyph-name="y" horiz-adv-x="958" d="M836 -96Q836 -268 733 -370T477 -473H281V-315H477Q563 -315 619 -259T676 -96V55Q597 -20 477 -20Q331 -20 228 75T123 315V1102H283V313Q283 236 339 186T477 135Q559 135 618 186T678 313V1102H836V-96Z" />
<glyph unicode="z" glyph-name="z" horiz-adv-x="913" d="M811 158V0H123V254Q123 420 212 524T459 629Q633 629 633 848V944H123V1102H791V848Q791 682 704 578T459 473Q367 473 324 414T281 254V158H811Z" />
<glyph unicode="{" glyph-name="braceleft" horiz-adv-x="471" d="M158 0V393Q158 457 113 502T6 551H0V709Q65 709 111 755T158 866V1260Q158 1391 249 1483T471 1575V1417Q406 1417 361 1372T315 1260V866Q315 797 286 735T207 629Q315 533 315 393V0Q315 -65
361 -111T471 -158V-315Q341 -315 250 -223T158 0Z" />
<glyph unicode="|" glyph-name="bar" horiz-adv-x="477" d="M317 -315H160V1575H317V-315Z" />
<glyph unicode="}" glyph-name="braceright" horiz-adv-x="471" d="M158 866V1260Q157 1326 111 1371T0 1417V1575Q130 1575 221 1483T313 1260V866Q313 803 357 757T465 709H471V551Q406 551 360 505T313 393V0Q313 -131 222 -223T0 -315V-158Q64 -158 110 -112T156
0V393Q156 534 262 629Q213 672 186 734T158 866Z" />
<glyph unicode="~" glyph-name="asciitilde" horiz-adv-x="1331" d="M930 496Q868 496 809 518L469 643Q452 649 403 655Q378 655 356 646T319 622T293 593T275 565T266 549L119 602Q122 610 129 626T161 678T214 741T294 791T403 813Q458 813 522 791L862 668Q902
653 930 653Q960 653 986 667T1028 702T1053 736T1065 760L1212 707Q1163 585 1065 530Q1004 496 930 496Z" />
</font>
</defs>
</svg>
